<mxfile host="app.diagrams.net" modified="2024-02-01T16:51:17.928Z" agent="Mozilla/5.0 (Windows NT 10.0; Win64; x64) AppleWebKit/537.36 (KHTML, like Gecko) Chrome/120.0.0.0 Safari/537.36" etag="bGdcp9H4lB5D9gnKEwS5" version="22.1.21" type="github">
  <diagram name="Page-1" id="XO5SGi0sQAArBYtOFoep">
    <mxGraphModel dx="1235" dy="655" grid="1" gridSize="10" guides="1" tooltips="1" connect="1" arrows="1" fold="1" page="1" pageScale="1" pageWidth="850" pageHeight="1100" math="0" shadow="0">
      <root>
        <mxCell id="0" />
        <mxCell id="1" parent="0" />
        <mxCell id="Tsg45pZwdYNzSgoX9oLm-12" style="edgeStyle=orthogonalEdgeStyle;rounded=0;orthogonalLoop=1;jettySize=auto;html=1;exitX=1;exitY=0.5;exitDx=0;exitDy=0;entryX=0;entryY=0.5;entryDx=0;entryDy=0;" edge="1" parent="1" source="Tsg45pZwdYNzSgoX9oLm-1" target="Tsg45pZwdYNzSgoX9oLm-2">
          <mxGeometry relative="1" as="geometry" />
        </mxCell>
        <mxCell id="Tsg45pZwdYNzSgoX9oLm-22" style="edgeStyle=orthogonalEdgeStyle;rounded=0;orthogonalLoop=1;jettySize=auto;html=1;exitX=0.5;exitY=1;exitDx=0;exitDy=0;" edge="1" parent="1" source="Tsg45pZwdYNzSgoX9oLm-1" target="Tsg45pZwdYNzSgoX9oLm-6">
          <mxGeometry relative="1" as="geometry" />
        </mxCell>
        <mxCell id="Tsg45pZwdYNzSgoX9oLm-1" value="UI - User Interface&lt;br&gt;Frontend" style="rounded=0;whiteSpace=wrap;html=1;" vertex="1" parent="1">
          <mxGeometry x="90" y="120" width="120" height="160" as="geometry" />
        </mxCell>
        <mxCell id="Tsg45pZwdYNzSgoX9oLm-13" style="edgeStyle=orthogonalEdgeStyle;rounded=0;orthogonalLoop=1;jettySize=auto;html=1;exitX=1;exitY=0.5;exitDx=0;exitDy=0;entryX=0;entryY=0.5;entryDx=0;entryDy=0;" edge="1" parent="1" source="Tsg45pZwdYNzSgoX9oLm-2" target="Tsg45pZwdYNzSgoX9oLm-3">
          <mxGeometry relative="1" as="geometry" />
        </mxCell>
        <mxCell id="Tsg45pZwdYNzSgoX9oLm-23" style="edgeStyle=orthogonalEdgeStyle;rounded=0;orthogonalLoop=1;jettySize=auto;html=1;exitX=0.5;exitY=1;exitDx=0;exitDy=0;" edge="1" parent="1" source="Tsg45pZwdYNzSgoX9oLm-2" target="Tsg45pZwdYNzSgoX9oLm-4">
          <mxGeometry relative="1" as="geometry" />
        </mxCell>
        <mxCell id="Tsg45pZwdYNzSgoX9oLm-2" value="Backend&amp;nbsp;&lt;br&gt;" style="rounded=0;whiteSpace=wrap;html=1;" vertex="1" parent="1">
          <mxGeometry x="230" y="120" width="120" height="160" as="geometry" />
        </mxCell>
        <mxCell id="Tsg45pZwdYNzSgoX9oLm-24" style="edgeStyle=orthogonalEdgeStyle;rounded=0;orthogonalLoop=1;jettySize=auto;html=1;exitX=0.5;exitY=1;exitDx=0;exitDy=0;" edge="1" parent="1" source="Tsg45pZwdYNzSgoX9oLm-3" target="Tsg45pZwdYNzSgoX9oLm-5">
          <mxGeometry relative="1" as="geometry" />
        </mxCell>
        <mxCell id="Tsg45pZwdYNzSgoX9oLm-3" value="Database" style="rounded=0;whiteSpace=wrap;html=1;" vertex="1" parent="1">
          <mxGeometry x="370" y="120" width="120" height="160" as="geometry" />
        </mxCell>
        <mxCell id="Tsg45pZwdYNzSgoX9oLm-18" style="edgeStyle=orthogonalEdgeStyle;rounded=0;orthogonalLoop=1;jettySize=auto;html=1;" edge="1" parent="1" source="Tsg45pZwdYNzSgoX9oLm-4" target="Tsg45pZwdYNzSgoX9oLm-16">
          <mxGeometry relative="1" as="geometry" />
        </mxCell>
        <mxCell id="Tsg45pZwdYNzSgoX9oLm-4" value="Backend Developer" style="shape=umlActor;verticalLabelPosition=bottom;verticalAlign=top;html=1;outlineConnect=0;" vertex="1" parent="1">
          <mxGeometry x="275" y="300" width="30" height="60" as="geometry" />
        </mxCell>
        <mxCell id="Tsg45pZwdYNzSgoX9oLm-21" value="" style="edgeStyle=orthogonalEdgeStyle;rounded=0;orthogonalLoop=1;jettySize=auto;html=1;" edge="1" parent="1" source="Tsg45pZwdYNzSgoX9oLm-5" target="Tsg45pZwdYNzSgoX9oLm-15">
          <mxGeometry relative="1" as="geometry" />
        </mxCell>
        <mxCell id="Tsg45pZwdYNzSgoX9oLm-5" value="Database Developer" style="shape=umlActor;verticalLabelPosition=bottom;verticalAlign=top;html=1;outlineConnect=0;" vertex="1" parent="1">
          <mxGeometry x="415" y="300" width="30" height="60" as="geometry" />
        </mxCell>
        <mxCell id="Tsg45pZwdYNzSgoX9oLm-17" style="edgeStyle=orthogonalEdgeStyle;rounded=0;orthogonalLoop=1;jettySize=auto;html=1;" edge="1" parent="1" source="Tsg45pZwdYNzSgoX9oLm-6" target="Tsg45pZwdYNzSgoX9oLm-14">
          <mxGeometry relative="1" as="geometry" />
        </mxCell>
        <mxCell id="Tsg45pZwdYNzSgoX9oLm-6" value="Frontend Developer" style="shape=umlActor;verticalLabelPosition=bottom;verticalAlign=top;html=1;outlineConnect=0;" vertex="1" parent="1">
          <mxGeometry x="135" y="300" width="30" height="60" as="geometry" />
        </mxCell>
        <mxCell id="Tsg45pZwdYNzSgoX9oLm-25" style="edgeStyle=orthogonalEdgeStyle;rounded=0;orthogonalLoop=1;jettySize=auto;html=1;exitX=0.5;exitY=1;exitDx=0;exitDy=0;" edge="1" parent="1" source="Tsg45pZwdYNzSgoX9oLm-14">
          <mxGeometry relative="1" as="geometry">
            <mxPoint x="150" y="520" as="targetPoint" />
            <Array as="points">
              <mxPoint x="150" y="490" />
              <mxPoint x="150" y="490" />
            </Array>
          </mxGeometry>
        </mxCell>
        <mxCell id="Tsg45pZwdYNzSgoX9oLm-14" value="Code" style="rounded=0;whiteSpace=wrap;html=1;" vertex="1" parent="1">
          <mxGeometry x="90" y="400" width="120" height="60" as="geometry" />
        </mxCell>
        <mxCell id="Tsg45pZwdYNzSgoX9oLm-27" style="edgeStyle=orthogonalEdgeStyle;rounded=0;orthogonalLoop=1;jettySize=auto;html=1;exitX=0.5;exitY=1;exitDx=0;exitDy=0;" edge="1" parent="1" source="Tsg45pZwdYNzSgoX9oLm-15">
          <mxGeometry relative="1" as="geometry">
            <mxPoint x="430" y="520" as="targetPoint" />
          </mxGeometry>
        </mxCell>
        <mxCell id="Tsg45pZwdYNzSgoX9oLm-15" value="Code" style="rounded=0;whiteSpace=wrap;html=1;" vertex="1" parent="1">
          <mxGeometry x="370" y="400" width="120" height="60" as="geometry" />
        </mxCell>
        <mxCell id="Tsg45pZwdYNzSgoX9oLm-26" style="edgeStyle=orthogonalEdgeStyle;rounded=0;orthogonalLoop=1;jettySize=auto;html=1;exitX=0.5;exitY=1;exitDx=0;exitDy=0;" edge="1" parent="1" source="Tsg45pZwdYNzSgoX9oLm-16">
          <mxGeometry relative="1" as="geometry">
            <mxPoint x="290" y="520" as="targetPoint" />
          </mxGeometry>
        </mxCell>
        <mxCell id="Tsg45pZwdYNzSgoX9oLm-16" value="Code" style="rounded=0;whiteSpace=wrap;html=1;" vertex="1" parent="1">
          <mxGeometry x="230" y="400" width="120" height="60" as="geometry" />
        </mxCell>
        <mxCell id="Tsg45pZwdYNzSgoX9oLm-28" value="Server&lt;br&gt;(Frontend)" style="rounded=0;whiteSpace=wrap;html=1;" vertex="1" parent="1">
          <mxGeometry x="90" y="600" width="120" height="60" as="geometry" />
        </mxCell>
        <mxCell id="Tsg45pZwdYNzSgoX9oLm-29" value="Server&lt;br&gt;(Backend)" style="rounded=0;whiteSpace=wrap;html=1;" vertex="1" parent="1">
          <mxGeometry x="230" y="600" width="120" height="60" as="geometry" />
        </mxCell>
        <mxCell id="Tsg45pZwdYNzSgoX9oLm-30" value="Database Server" style="rounded=0;whiteSpace=wrap;html=1;" vertex="1" parent="1">
          <mxGeometry x="370" y="520" width="120" height="60" as="geometry" />
        </mxCell>
        <mxCell id="Tsg45pZwdYNzSgoX9oLm-46" style="edgeStyle=orthogonalEdgeStyle;rounded=0;orthogonalLoop=1;jettySize=auto;html=1;exitX=0.5;exitY=1;exitDx=0;exitDy=0;" edge="1" parent="1" source="Tsg45pZwdYNzSgoX9oLm-39" target="Tsg45pZwdYNzSgoX9oLm-29">
          <mxGeometry relative="1" as="geometry" />
        </mxCell>
        <mxCell id="Tsg45pZwdYNzSgoX9oLm-39" value="" style="shape=actor;whiteSpace=wrap;html=1;" vertex="1" parent="1">
          <mxGeometry x="275" y="530" width="30" height="50" as="geometry" />
        </mxCell>
        <mxCell id="Tsg45pZwdYNzSgoX9oLm-45" style="edgeStyle=orthogonalEdgeStyle;rounded=0;orthogonalLoop=1;jettySize=auto;html=1;exitX=0.5;exitY=1;exitDx=0;exitDy=0;" edge="1" parent="1" source="Tsg45pZwdYNzSgoX9oLm-43" target="Tsg45pZwdYNzSgoX9oLm-28">
          <mxGeometry relative="1" as="geometry" />
        </mxCell>
        <mxCell id="Tsg45pZwdYNzSgoX9oLm-43" value="" style="shape=actor;whiteSpace=wrap;html=1;" vertex="1" parent="1">
          <mxGeometry x="135" y="530" width="30" height="50" as="geometry" />
        </mxCell>
        <mxCell id="Tsg45pZwdYNzSgoX9oLm-47" value="" style="shape=actor;whiteSpace=wrap;html=1;" vertex="1" parent="1">
          <mxGeometry x="550" y="525" width="40" height="60" as="geometry" />
        </mxCell>
        <mxCell id="Tsg45pZwdYNzSgoX9oLm-48" value="Devops Engineer" style="whiteSpace=wrap;html=1;" vertex="1" parent="1">
          <mxGeometry x="600" y="525" width="120" height="60" as="geometry" />
        </mxCell>
      </root>
    </mxGraphModel>
  </diagram>
</mxfile>
